# xmcd
#
# Track frame offsets: 
#        150
#        33895
#        53662
#        75625
#        109835
#        135757
#        150422
#
# Disc length: 2186 seconds
#
# Revision: 4
# Processed by: cddbd v1.5.1PL0 Copyright (c) Steve Scherf et al.
# Submitted via: ExactAudioCopy v0.95a5
#
DISCID=42088807
DTITLE=Harmssen-Voss-Duo - Mother Nature, Father Harmony
DYEAR=1983
DGENRE=Jazz
TTITLE0=Closed Eyes
TTITLE1=Mother Nature
TTITLE2=Fun
TTITLE3=Clouds on the Sea
TTITLE4=Fjord
TTITLE5=Back Again
TTITLE6=Short Moments
EXTD=YEAR: 1983
EXTT0=
EXTT1=
EXTT2=
EXTT3=
EXTT4=
EXTT5=
EXTT6=
PLAYORDER=
